<?xml version="1.0" encoding="UTF-8"?>
<svg xmlns="http://www.w3.org/2000/svg" version="1.1" viewBox="0 0 16 16">
  <defs>
    <style>
      .cls-1 {
        fill: red;
      }
    </style>
  </defs>
  <!-- Generator: Adobe Illustrator 28.6.0, SVG Export Plug-In . SVG Version: 1.2.0 Build 709)  -->
  <g>
    <g id="Capa_1">
      <g id="Capa_1-2" data-name="Capa_1">
        <path class="cls-1" d="M16,8c0,2.1-.8,4.2-2.3,5.7s-3.5,2.3-5.7,2.3-4.2-.8-5.7-2.3S0,10.2,0,8,.8,3.8,2.3,2.3C3.8.8,5.9,0,8,0s4.2.8,5.7,2.3c1.5,1.5,2.3,3.5,2.3,5.7ZM8,4h-.4c0,0-.2,0-.3.2,0,0,0,.2-.2.3v.4l.3,3.5c0,.1,0,.3.2.4,0,0,.2.1.4.1s.3,0,.4-.1c.1,0,.2-.2.2-.4l.3-3.5v-.4c0,0-.1-.2-.2-.3,0,0-.2-.2-.3-.2s-.2,0-.4,0ZM8,10c-.3,0-.5.1-.7.3s-.3.4-.3.7,0,.5.3.7c.2.2.4.3.7.3s.5-.1.7-.3.3-.4.3-.7-.1-.5-.3-.7-.4-.3-.7-.3Z"/>
      </g>
    </g>
  </g>
</svg>