<?xml version="1.0" encoding="UTF-8"?>
<svg xmlns="http://www.w3.org/2000/svg" version="1.1" viewBox="0 0 32 48">
  <defs>
    <style>
      .cls-1 {
        fill: #9b9b9b;
        fill-rule: evenodd;
      }
    </style>
  </defs>
  <!-- Generator: Adobe Illustrator 28.6.0, SVG Export Plug-In . SVG Version: 1.2.0 Build 709)  -->
  <g>
    <g id="Capa_1">
      <g id="Capa_1-2" data-name="Capa_1">
        <path class="cls-1" d="M23.4,23.7c0,.3-.1.5-.3.8l-.6.6c-.5.3-.9.5-1.4.6-.9.3-1.9.6-2.9,1-1.1.4-2.1.7-2.9,1-1.1.4-2.1.7-3.1,1.1-.7.3-1.4.7-2.1,1.2-.6.5-1.1,1.1-1.5,1.8s-.7,1.7-.7,2.8c0,2.2.5,4,1.6,5,1.1,1.1,3.1,1.7,6.1,1.7s5.1-.6,6.2-1.8c1.1-1.2,1.6-2.8,1.6-5v-10.9h0ZM15.5,0c5.3,0,9.3,1,11.8,3.1,2.5,2,3.8,4.6,3.8,7.7v26.4c0,1.1-.2,2.2-.6,3.5s-1.1,2.5-2.3,3.5c-1.1,1.1-2.7,2-4.7,2.7-2,.7-4.6,1.1-7.9,1.1s-5.8-.4-7.9-1.1c-2-.7-3.6-1.6-4.7-2.7-1.1-1-1.9-2.2-2.3-3.5-.4-1.3-.6-2.5-.6-3.5v-4.2c0-2.2.6-4.3,1.8-6.1,1.2-1.9,2.9-3.1,5.1-3.9s2.3-.7,3.8-1.2c1.4-.5,2.7-1,4-1.4s2.5-.9,3.4-1.2c.6-.2,1.2-.4,1.8-.6l1-.5c.4-.2.8-.5,1.1-1,.4-.4.7-.9,1-1.4.3-.6.4-1.2.4-1.9v-1.7c0-.6-.1-1.2-.4-1.8-.2-.6-.7-1.2-1.3-1.8-.6-.5-1.4-1-2.4-1.3s-2.3-.5-3.8-.5c-3.1,0-5.1.6-6.2,1.8-.9,1.1-1.5,2.4-1.6,3.9,0,.3-.3.5-.6.5H.7c-.2.1-.3,0-.4,0,0-.1-.2-.3-.2-.4v-1.5c0-1.5.3-2.9.9-4.2s1.5-2.5,2.8-3.4c1.3-1,2.9-1.8,4.9-2.3,1.9-.6,4.3-.9,7-.9h0l-.2-.2Z"/>
      </g>
    </g>
  </g>
</svg>